<svg xmlns="http://www.w3.org/2000/svg" xmlns:xlink="http://www.w3.org/1999/xlink" width="888px" height="179px" viewBox="0 0 888.2208373810417 179.31578222583812">
    <g id="458e8f1b-7bf6-4ec1-a495-d544c63a975f">
<g style="">
		<g id="458e8f1b-7bf6-4ec1-a495-d544c63a975f-child-0">
<path style="stroke: rgb(193,193,193); stroke-opacity: 1.00; stroke-width: 0; stroke-dasharray: none; stroke-linecap: butt; stroke-dashoffset: 0; stroke-linejoin: miter; stroke-miterlimit: 4; fill: rgb(0,0,0); fill-opacity: 1.00; fill-rule: nonzero; opacity: 1;" transform="matrix(0.875337 0 0 0.875265 444.110249 89.65793) matrix(1 0 0 1 0 0)  translate(-539.430836, -147.435183)" d="M 195.52 248.34 C 186.44 246.40 174.90 241.91 167.50 237.46 L 161.61 233.91 L 152.63 235.46 C 147.69 236.31 140.69 236.98 137.07 236.96 L 130.50 236.91 L 142.50 232.93 C 174.63 222.26 213.30 197.60 244.25 168.05 L 254.78 158.00 L 261.14 157.99 C 272.56 157.97 281.30 152.00 286.62 140.57 C 290.91 131.36 289.11 122.20 282.47 119.42 C 277.84 117.49 274.05 117.63 267.79 119.98 C 256.81 124.09 250.14 132.51 249.36 143.25 C 249.10 146.69 248.20 150.85 247.34 152.50 C 245.61 155.83 232.31 167.92 218.50 178.72 C 190.53 200.60 165.72 214.82 141.25 223.00 C 123.12 229.06 111.68 230.03 102.73 226.27 C 90.35 221.05 93.11 202.34 109.11 183.00 C 112.52 178.88 115.04 176.18 114.71 177.00 C 114.38 177.82 112.93 181.36 111.47 184.86 C 110.02 188.36 108.59 193.62 108.28 196.55 C 107.77 201.51 107.95 202.10 110.79 204.94 C 113.39 207.54 114.60 208.00 118.87 208.00 C 121.64 208.00 127.63 206.82 132.20 205.38 C 151.95 199.15 173.99 184.71 195.71 163.76 L 203.91 155.85 L 209.21 156.47 C 216.17 157.29 218.67 155.69 228.51 144.11 C 241.65 128.67 243.47 126.07 242.13 124.73 C 241.20 123.80 238.60 125.96 230.51 134.37 C 224.78 140.32 219.51 145.01 218.80 144.77 C 215.43 143.66 217.38 140.14 226.96 130.00 C 235.66 120.79 236.71 119.32 235.43 118.03 C 234.16 116.73 232.72 117.81 223.62 126.88 C 213.56 136.91 210.41 138.72 209.22 135.17 C 208.98 134.44 213.54 129.08 219.35 123.26 C 229.11 113.48 230.82 110.98 227.69 111.01 C 226.14 111.03 202.27 131.66 199.62 135.27 C 198.15 137.27 197.57 139.63 197.54 143.81 C 197.52 147.53 196.89 150.52 195.78 152.21 C 191.06 159.41 156.93 184.60 142.55 191.50 C 129.43 197.79 130.25 197.78 127.43 191.62 C 126.07 188.66 124.06 182.11 122.96 177.07 C 120.59 166.19 117.60 161.02 111.68 157.55 C 107.39 155.04 103.89 154.18 89.00 152.00 C 76.48 150.17 67.08 144.56 59.84 134.60 C 56.59 130.13 56.24 128.49 58.75 129.46 C 63.09 131.13 99.05 137.15 103.47 136.95 C 105.87 136.84 94.22 131.72 82.26 127.63 C 75.15 125.19 66.48 121.76 62.98 119.99 C 51.24 114.06 40.97 101.78 39.34 91.69 L 38.75 88.06 L 48.62 92.94 C 54.06 95.62 66.38 100.61 76.00 104.03 C 85.62 107.45 94.74 110.88 96.25 111.65 C 97.76 112.42 99.00 112.69 99.00 112.24 C 99.00 110.93 87.47 103.72 72.95 95.93 C 65.55 91.97 57.47 87.25 54.99 85.45 C 48.25 80.57 39.56 71.04 36.74 65.45 C 33.94 59.90 31.61 50.67 32.15 47.23 C 32.55 44.66 28.74 42.71 66.50 64.76 C 111.57 91.08 117.22 94.99 122.84 103.76 C 124.54 106.40 126.54 110.96 127.29 113.88 L 128.65 119.20 L 132.84 112.14 C 145.93 90.12 165.59 74.65 189.00 67.95 C 198.68 65.18 220.15 64.17 230.38 66.00 C 258.68 71.06 281.95 87.65 295.62 112.52 L 299.41 119.41 L 301.15 113.54 C 304.77 101.36 312.47 93.80 334.50 80.80 C 357.98 66.94 370.99 59.36 383.39 52.32 L 396.28 45.00 L 395.73 51.00 C 394.72 62.13 386.65 75.43 375.92 83.65 C 372.94 85.94 363.30 91.72 354.50 96.49 C 340.39 104.15 328.00 112.12 328.00 113.55 C 328.00 113.82 329.69 113.18 331.75 112.13 C 333.81 111.09 342.86 107.63 351.86 104.45 C 360.85 101.28 372.89 96.37 378.61 93.56 L 389.00 88.44 L 389.00 91.09 C 389.00 95.66 382.31 107.56 377.20 112.06 C 370.20 118.23 365.58 120.61 349.29 126.44 C 334.63 131.69 324.60 135.93 325.27 136.61 C 325.97 137.31 355.72 132.93 363.42 131.00 C 367.78 129.90 371.49 129.16 371.67 129.34 C 372.62 130.29 365.01 139.68 360.56 143.04 C 353.11 148.67 347.47 150.84 335.82 152.55 C 323.11 154.42 320.25 155.31 315.11 159.04 C 310.06 162.69 307.57 167.50 304.55 179.42 C 295.57 214.81 268.08 240.91 231.72 248.56 C 222.99 250.40 204.59 250.28 195.52 248.34 Z M 233.64 225.45 C 252.50 220.02 267.82 207.71 276.41 191.07 C 281.13 181.93 285.00 169.44 285.00 163.34 C 285.00 159.22 284.18 159.16 280.47 163.03 C 278.44 165.15 277.18 167.91 276.32 172.15 C 272.79 189.46 259.73 206.01 242.84 214.58 C 230.99 220.59 212.90 222.71 199.79 219.62 C 194.57 218.40 193.80 218.44 191.04 220.12 C 187.31 222.39 187.28 222.76 190.75 224.16 C 197.02 226.70 204.09 227.83 214.14 227.91 C 222.74 227.98 226.48 227.51 233.64 225.45 Z M 150.95 177.24 C 152.90 175.66 153.00 175.16 151.91 172.49 C 151.21 170.77 150.65 164.42 150.60 157.50 C 150.52 147.45 150.88 144.36 152.82 138.50 C 157.07 125.72 164.73 114.64 174.38 107.34 C 199.14 88.61 229.67 88.62 254.63 107.38 C 260.37 111.69 260.95 111.91 263.95 110.87 L 267.15 109.75 L 263.83 106.28 C 256.20 98.30 241.70 90.55 229.50 87.91 C 226.20 87.20 219.00 86.64 213.50 86.66 C 182.61 86.81 156.71 105.65 146.38 135.51 C 143.96 142.52 143.61 145.03 143.56 156.00 C 143.50 169.09 145.19 179.00 147.49 179.00 C 148.20 179.00 149.76 178.21 150.95 177.24 Z M 516.76 186.12 C 505.22 182.31 496.54 174.77 491.77 164.42 C 489.83 160.21 489.50 157.84 489.50 147.98 C 489.50 137.00 489.65 136.15 492.75 129.86 C 507.55 99.79 555.97 100.20 570.50 130.52 C 574.26 138.36 575.17 151.89 572.50 160.15 C 568.73 171.81 560.66 180.36 549.00 185.06 C 541.13 188.23 524.78 188.77 516.76 186.12 Z M 539.38 170.78 C 544.80 169.17 552.17 161.80 553.78 156.38 C 558.21 141.45 550.37 126.67 536.66 124.12 C 530.25 122.93 521.25 124.81 516.69 128.28 C 506.03 136.42 505.04 155.78 514.80 165.30 C 521.06 171.42 530.30 173.48 539.38 170.78 Z M 611.76 186.12 C 596.71 181.15 587.11 170.56 584.00 155.52 C 578.20 127.46 603.12 103.38 633.25 107.94 C 647.76 110.14 659.53 118.58 665.42 131.00 C 668.25 136.98 668.50 138.34 668.50 148.00 C 668.50 157.31 668.20 159.15 665.80 164.25 C 661.83 172.74 654.43 180.05 645.76 184.04 C 639.28 187.03 637.45 187.40 628.02 187.69 C 619.73 187.95 616.28 187.61 611.76 186.12 Z M 636.00 169.92 C 642.05 167.17 644.81 164.46 647.62 158.50 C 651.92 149.39 650.03 137.36 643.28 130.78 C 638.15 125.78 632.82 123.69 625.30 123.72 C 614.70 123.77 606.47 130.14 603.41 140.66 C 599.74 153.29 606.07 166.40 617.89 170.62 C 623.28 172.55 630.84 172.25 636.00 169.92 Z M 421.00 148.00 L 421.00 109.00 L 450.86 109.00 L 480.71 109.00 L 481.33 115.64 C 481.67 119.29 481.71 122.66 481.42 123.14 C 481.12 123.61 471.68 124.00 460.44 124.00 L 440.00 124.00 L 440.00 133.48 L 440.00 142.95 L 458.25 143.23 L 476.50 143.50 L 476.79 150.75 L 477.09 158.00 L 458.54 158.00 L 440.00 158.00 L 440.00 172.50 L 440.00 187.00 L 430.50 187.00 L 421.00 187.00 L 421.00 148.00 Z M 682.00 147.92 L 682.00 108.85 L 707.25 109.17 L 732.50 109.50 L 739.50 112.81 C 754.38 119.83 762.00 131.75 762.00 148.00 C 762.00 163.75 754.18 176.37 740.55 182.61 C 732.52 186.28 726.43 187.00 703.36 187.00 L 682.00 187.00 L 682.00 147.92 Z M 731.12 168.21 C 735.02 166.17 737.29 164.09 739.48 160.53 C 742.16 156.21 742.50 154.78 742.47 148.07 C 742.39 130.94 732.81 123.59 711.36 124.21 L 701.50 124.50 L 701.23 147.75 L 700.96 171.00 L 713.37 171.00 C 725.00 171.00 726.10 170.83 731.12 168.21 Z M 775.67 186.33 C 774.84 185.50 774.80 114.34 775.63 111.25 C 776.19 109.16 776.79 109.00 784.11 109.00 L 792.00 109.00 L 794.89 113.75 C 806.28 132.42 820.57 155.00 821.00 155.00 C 821.29 155.00 827.77 144.65 835.41 132.00 L 849.30 109.00 L 857.65 109.00 L 866.00 109.00 L 866.00 148.00 L 866.00 187.00 L 857.02 187.00 L 848.04 187.00 L 847.77 164.25 L 847.50 141.50 L 836.47 160.00 L 825.45 178.50 L 821.27 178.81 C 816.30 179.17 816.13 178.97 803.00 157.19 C 798.33 149.43 794.16 143.07 793.75 143.04 C 793.34 143.02 793.00 152.90 793.00 165.00 L 793.00 187.00 L 784.67 187.00 C 780.08 187.00 776.03 186.70 775.67 186.33 Z M 874.91 184.75 C 875.38 183.51 880.95 171.02 887.28 157.00 C 893.62 142.98 901.03 126.55 903.74 120.50 L 908.68 109.50 L 918.69 109.22 L 928.70 108.93 L 946.72 147.97 L 964.73 187.00 L 954.51 187.00 L 944.29 187.00 L 940.87 178.90 C 939.00 174.45 937.13 170.85 936.73 170.90 C 936.33 170.96 927.93 171.00 918.07 171.00 L 900.15 171.00 L 896.88 179.00 L 893.61 187.00 L 883.83 187.00 C 874.10 187.00 874.05 186.99 874.91 184.75 Z M 930.67 154.75 C 930.37 154.06 927.82 148.10 924.99 141.50 C 922.17 134.90 919.53 129.16 919.13 128.75 C 918.54 128.14 915.24 135.43 907.17 155.18 C 906.98 155.63 912.32 156.00 919.02 156.00 C 928.40 156.00 931.09 155.71 930.67 154.75 Z M 966.00 186.50 C 966.00 186.23 972.35 177.21 980.10 166.46 L 994.21 146.91 L 991.75 143.21 C 990.40 141.17 984.51 132.98 978.66 125.00 C 972.81 117.03 968.02 110.15 968.01 109.72 C 968.00 109.29 972.81 109.06 978.68 109.22 L 989.37 109.50 L 997.85 121.43 C 1005.76 132.56 1006.43 133.23 1007.73 131.43 C 1008.50 130.37 1012.49 124.89 1016.60 119.25 L 1024.08 109.00 L 1034.66 109.00 C 1042.98 109.00 1045.04 109.27 1044.28 110.25 C 1041.33 114.07 1021.07 141.91 1019.64 144.11 L 1017.95 146.72 L 1032.37 166.61 L 1046.79 186.50 L 1036.29 186.78 C 1029.81 186.96 1025.29 186.66 1024.49 185.99 C 1023.77 185.39 1019.45 179.53 1014.88 172.95 C 1010.32 166.38 1006.34 161.00 1006.04 161.00 C 1005.74 161.00 1001.47 166.85 996.54 174.00 L 987.57 187.00 L 976.79 187.00 C 970.85 187.00 966.00 186.78 966.00 186.50 Z" stroke-linecap="round"></path>
</g>
</g>
</g>

  </svg>