<svg width="27" height="26" viewBox="0 0 27 26" fill="none" xmlns="http://www.w3.org/2000/svg">
<path d="M0 2.94764C0 2.09323 0.300054 1.38836 0.900137 0.833027C1.50022 0.277667 2.28036 0 3.24049 0C4.1835 0 4.94646 0.273387 5.52942 0.820212C6.1295 1.38411 6.42955 2.11886 6.42955 3.02453C6.42955 3.84474 6.13809 4.52823 5.55513 5.07506C4.95505 5.63895 4.16635 5.9209 3.18906 5.9209H3.16334C2.22033 5.9209 1.45737 5.63895 0.874419 5.07506C0.291465 4.51116 0 3.80201 0 2.94764ZM0.334337 25.3753V8.25338H6.04378V25.3753H0.334337ZM9.20712 25.3753H14.9166V15.8147C14.9166 15.2166 14.9852 14.7552 15.1223 14.4306C15.3623 13.8496 15.7267 13.3583 16.2153 12.9568C16.704 12.5552 17.3169 12.3544 18.0542 12.3544C19.9745 12.3544 20.9346 13.6446 20.9346 16.2248V25.3753H26.6441V15.5584C26.6441 13.0294 26.044 11.1113 24.8438 9.80409C23.6436 8.49688 22.0577 7.84327 20.0859 7.84327C17.8742 7.84327 16.151 8.79164 14.9166 10.6884V10.7396H14.8908L14.9166 10.6884V8.25338H9.20712C9.2414 8.80018 9.25856 10.5004 9.25856 13.3541C9.25856 16.2077 9.2414 20.2148 9.20712 25.3753Z" fill="#D68240"/>
</svg>
