<svg width="27" height="22" viewBox="0 0 27 22" fill="none" xmlns="http://www.w3.org/2000/svg">
<path d="M17.8028 0.00479842V0H19.0521L19.5086 0.09117C19.8129 0.150359 20.0892 0.227925 20.3374 0.323893C20.5857 0.419862 20.826 0.531833 21.0582 0.659783C21.2904 0.787733 21.5011 0.918106 21.6901 1.05085C21.8775 1.18202 22.0456 1.32117 22.1946 1.46832C22.3419 1.61707 22.5718 1.65546 22.8841 1.58348C23.1964 1.5115 23.5328 1.41153 23.8932 1.28358C24.2535 1.15563 24.6099 1.01168 24.9623 0.85172C25.3147 0.691764 25.5293 0.590206 25.6062 0.54702C25.6815 0.502251 25.7215 0.478259 25.7263 0.475044L25.7311 0.467846L25.7551 0.45585L25.7792 0.443854L25.8032 0.431858L25.8272 0.419862L25.832 0.412664L25.8392 0.407866L25.8465 0.403067L25.8512 0.39587L25.8753 0.388672L25.8993 0.383874L25.8945 0.419862L25.8873 0.45585L25.8753 0.491838L25.8632 0.527826L25.8512 0.551818L25.8392 0.575811L25.8272 0.611799C25.8192 0.635791 25.8112 0.667772 25.8032 0.707767C25.7952 0.747762 25.7191 0.907693 25.5749 1.18761C25.4308 1.46753 25.2506 1.75142 25.0344 2.03933C24.8181 2.32723 24.6244 2.54475 24.453 2.69191C24.28 2.84067 24.1655 2.94462 24.1094 3.00381C24.0533 3.06458 23.9853 3.12056 23.9052 3.17176L23.7851 3.25093L23.761 3.26293L23.737 3.27492L23.7322 3.28212L23.725 3.28692L23.7178 3.29172L23.713 3.29891L23.689 3.31091L23.6649 3.32291L23.6602 3.3301L23.6529 3.3349L23.6457 3.3397L23.6409 3.3469L23.6361 3.3541L23.6289 3.35889L23.6217 3.36369L23.6169 3.37089H23.737L24.4097 3.22694C24.8582 3.13097 25.2866 3.01502 25.6951 2.87905L26.3438 2.66312L26.4158 2.63913L26.4519 2.62714L26.4759 2.61514L26.4999 2.60314L26.5239 2.59115L26.548 2.57915L26.596 2.57195L26.6441 2.56716V2.61514L26.6321 2.61994L26.62 2.62714L26.6153 2.63433L26.608 2.63913L26.6008 2.64393L26.596 2.65113L26.5912 2.65833L26.584 2.66312L26.5768 2.66792L26.572 2.67512L26.5672 2.68232L26.56 2.68712L26.548 2.71111L26.536 2.7351L26.5287 2.7399C26.5256 2.7447 26.4239 2.88064 26.2236 3.14776C26.0234 3.41648 25.9153 3.55242 25.8993 3.55563C25.8833 3.56043 25.8608 3.58442 25.832 3.62761C25.8048 3.67238 25.635 3.85073 25.3227 4.16263C25.0103 4.47453 24.7045 4.75202 24.4049 4.99516C24.1038 5.23988 23.9516 5.54057 23.9485 5.89726C23.9436 6.25234 23.9252 6.65383 23.8932 7.10166C23.8611 7.54952 23.8011 8.03335 23.713 8.55319C23.6249 9.07302 23.4888 9.66083 23.3046 10.3166C23.1204 10.9724 22.8961 11.6122 22.6318 12.236C22.3676 12.8598 22.0913 13.4196 21.803 13.9154C21.5147 14.4113 21.2504 14.8311 21.0101 15.175C20.7699 15.5189 20.5256 15.8428 20.2774 16.1467C20.0291 16.4506 19.7152 16.7929 19.3356 17.1735C18.9544 17.5526 18.7462 17.7606 18.7109 17.7973C18.6741 17.8325 18.5171 17.9637 18.24 18.1908C17.9645 18.4195 17.6682 18.6482 17.3511 18.877C17.0356 19.1041 16.7456 19.2937 16.4814 19.4456C16.2171 19.5975 15.8984 19.7711 15.5252 19.9662C15.1536 20.163 14.7515 20.3453 14.3191 20.5133C13.8866 20.6812 13.4301 20.8371 12.9496 20.9811C12.4691 21.125 12.0047 21.237 11.5562 21.317C11.1077 21.397 10.5992 21.4649 10.0306 21.5209L9.17767 21.6049V21.6169H7.61602V21.6049L7.41181 21.5929C7.27568 21.5849 7.16355 21.5769 7.07545 21.5689C6.98738 21.5609 6.65501 21.5169 6.0784 21.4369C5.5018 21.357 5.04933 21.277 4.72097 21.197C4.39264 21.1171 3.90411 20.9651 3.25543 20.7412C2.60675 20.5173 2.05176 20.2909 1.59048 20.0622C1.1308 19.8351 0.842496 19.6911 0.725564 19.6303C0.610243 19.5712 0.480506 19.4976 0.336354 19.4096L0.120127 19.2777L0.115346 19.2705L0.108114 19.2657L0.100906 19.2609L0.0961012 19.2537L0.0720759 19.2417L0.0480506 19.2297L0.0432696 19.2225L0.036038 19.2177L0.0288304 19.2129L0.0240253 19.2057L0.0192443 19.1985L0.0120127 19.1937H0V19.1457L0.0240253 19.1505L0.0480506 19.1577L0.156165 19.1697C0.22824 19.1777 0.424455 19.1897 0.744785 19.2057C1.06514 19.2217 1.40548 19.2217 1.76586 19.2057C2.12624 19.1897 2.49464 19.1537 2.87102 19.0977C3.24743 19.0417 3.6919 18.9458 4.20443 18.8098C4.71699 18.6738 5.18788 18.5123 5.61714 18.3252C6.04479 18.1364 6.3491 17.9957 6.5301 17.9029C6.70948 17.8117 6.98336 17.6422 7.35174 17.3943L7.90433 17.0224L7.90913 17.0152L7.91634 17.0104L7.92357 17.0056L7.92835 16.9984L7.93316 16.9912L7.94036 16.9864L7.9476 16.9816L7.95238 16.9744L7.9764 16.9672L8.00043 16.9624L8.00523 16.9384L8.01244 16.9144L8.01967 16.9096L8.02445 16.9024L7.83225 16.8904C7.70412 16.8825 7.57999 16.8744 7.45986 16.8665C7.33973 16.8585 7.15154 16.8225 6.89526 16.7585C6.63901 16.6945 6.36272 16.5985 6.06639 16.4706C5.77009 16.3426 5.48178 16.1907 5.20148 16.0147C4.9212 15.8388 4.71857 15.6924 4.59364 15.5757C4.47032 15.4605 4.31014 15.2974 4.11313 15.0862C3.91774 14.8735 3.74795 14.6552 3.6038 14.4313C3.45964 14.2073 3.32191 13.949 3.19059 13.6563L2.99115 13.2197L2.97914 13.1837L2.96713 13.1477L2.95992 13.1237L2.95511 13.0997L2.99115 13.1045L3.02719 13.1117L3.29147 13.1477C3.46767 13.1717 3.74396 13.1797 4.12034 13.1717C4.49675 13.1637 4.75701 13.1477 4.90116 13.1237C5.04532 13.0997 5.13342 13.0837 5.16544 13.0757L5.21349 13.0637L5.27356 13.0517L5.33362 13.0397L5.33842 13.0325L5.34563 13.0277L5.35286 13.0229L5.35764 13.0157L5.30959 13.0037L5.26154 12.9917L5.21349 12.9797L5.16544 12.9677L5.11739 12.9557C5.08537 12.9477 5.02931 12.9317 4.94921 12.9078C4.86914 12.8838 4.65291 12.7958 4.30053 12.6438C3.94818 12.4919 3.66787 12.3439 3.45964 12.2C3.2509 12.0556 3.05186 11.8977 2.86382 11.7273C2.67642 11.5546 2.47062 11.3323 2.24637 11.0604C2.02214 10.7885 1.82194 10.4726 1.64573 10.1127C1.46956 9.75279 1.33742 9.40891 1.24932 9.08101C1.16157 8.75504 1.10368 8.42178 1.07636 8.08534L1.03309 7.58151L1.05711 7.5863L1.08114 7.5935L1.10516 7.6055L1.12919 7.61749L1.15321 7.62949L1.17724 7.64149L1.54963 7.80943C1.79791 7.9214 2.10623 8.01737 2.47461 8.09734C2.84301 8.1773 3.06323 8.2213 3.1353 8.22929L3.24342 8.24129H3.45964L3.45486 8.23409L3.44763 8.22929L3.44042 8.22449L3.43562 8.2173L3.43084 8.2101L3.42361 8.2053L3.4164 8.2005L3.41159 8.1933L3.38757 8.18131L3.36354 8.16931L3.35876 8.16212L3.35153 8.15732L3.34432 8.15252L3.33952 8.14532L3.31549 8.13332L3.29147 8.12133L3.28669 8.11413C3.28188 8.11092 3.213 8.05974 3.08004 7.96058C2.9487 7.85981 2.81096 7.72947 2.66681 7.56951C2.52266 7.40955 2.37851 7.24161 2.23435 7.06568C2.08994 6.88934 1.96131 6.70068 1.84995 6.50186C1.73785 6.30193 1.61931 6.04759 1.49437 5.73891C1.37105 5.43181 1.27735 5.12231 1.21328 4.81042C1.14923 4.49852 1.11319 4.19063 1.10516 3.88672C1.09716 3.58281 1.10516 3.32291 1.12919 3.10698C1.15321 2.89105 1.20127 2.64712 1.27334 2.37522C1.34542 2.10332 1.44954 1.81541 1.58567 1.5115L1.78989 1.05565L1.8019 1.01966L1.81391 0.983676L1.82114 0.978878L1.82592 0.97168L1.83073 0.964483L1.83794 0.959684L1.84517 0.964483L1.84995 0.97168L1.85475 0.978878L1.86196 0.983676L1.86919 0.988475L1.87397 0.995672L1.87878 1.00287L1.88599 1.00767L1.898 1.03166L1.91001 1.05565L1.91724 1.06045L1.92202 1.06765L2.24637 1.42753C2.46259 1.66745 2.71887 1.93537 3.01518 2.23127C3.3115 2.52716 3.47567 2.68071 3.5077 2.69191C3.53975 2.7047 3.57977 2.74148 3.62782 2.80228C3.67587 2.86147 3.83605 3.00302 4.10833 3.22694C4.38063 3.45086 4.737 3.71079 5.17745 4.00668C5.61793 4.30258 6.10644 4.59449 6.643 4.88239C7.17958 5.1703 7.75619 5.43021 8.37282 5.66214C8.98948 5.89407 9.42193 6.04601 9.67019 6.11799C9.91846 6.18996 10.3429 6.28193 10.9435 6.3939C11.5442 6.50587 11.9967 6.57784 12.301 6.60983C12.6053 6.64181 12.8135 6.66021 12.9256 6.66501L13.0938 6.66981L13.089 6.63382L13.0818 6.59783L13.0337 6.29793C13.0017 6.098 12.9857 5.81809 12.9857 5.4582C12.9857 5.09832 13.0137 4.76644 13.0698 4.46253C13.1258 4.15862 13.2099 3.85073 13.322 3.53884C13.4342 3.22694 13.5439 2.9766 13.6512 2.78788C13.7601 2.60074 13.9027 2.38721 14.0788 2.14729C14.255 1.90737 14.4833 1.65946 14.7636 1.40354C15.0439 1.14761 15.3642 0.919689 15.7246 0.719763C16.0849 0.519837 16.4173 0.367871 16.7216 0.263913C17.0259 0.159955 17.2822 0.0919617 17.4904 0.0599803C17.6987 0.0279988 17.8028 0.00959684 17.8028 0.00479842Z" fill="#D68240"/>
</svg>
