<svg width="27" height="27" viewBox="0 0 27 27" fill="none" xmlns="http://www.w3.org/2000/svg">
<path d="M13.3223 0C18.6437 2.66578e-10 21.3042 0.000475952 23.2207 1.26855C24.0764 1.83478 24.8097 2.56712 25.376 3.42285C26.6441 5.33936 26.6445 8.00065 26.6445 13.3223C26.6445 18.6436 26.6439 21.3042 25.376 23.2207C24.8097 24.0765 24.0765 24.8097 23.2207 25.376C21.3042 26.6439 18.6436 26.6445 13.3223 26.6445C8.00065 26.6445 5.33936 26.6441 3.42285 25.376C2.56712 24.8097 1.83478 24.0764 1.26855 23.2207C0.000475952 21.3042 2.66578e-10 18.6437 0 13.3223C0 8.00065 0.000457566 5.33936 1.26855 3.42285C1.8347 2.56733 2.56733 1.8347 3.42285 1.26855C5.33936 0.000457566 8.00065 0 13.3223 0ZM13.3223 6.42578C9.51332 6.42578 6.42505 9.51338 6.4248 13.3223C6.4248 17.1314 9.51317 20.2197 13.3223 20.2197C17.1312 20.2195 20.2188 17.1312 20.2188 13.3223C20.2185 9.51353 17.131 6.42602 13.3223 6.42578ZM13.3223 8.75879C15.8423 8.75903 17.8855 10.8022 17.8857 13.3223C17.8857 15.8425 15.8424 17.8865 13.3223 17.8867C10.8019 17.8867 8.75781 15.8426 8.75781 13.3223C8.75806 10.8021 10.802 8.75879 13.3223 8.75879ZM20.4912 4.45801C19.5962 4.45801 18.8701 5.18408 18.8701 6.0791C18.8702 6.97409 19.5962 7.69922 20.4912 7.69922C21.3861 7.69906 22.1113 6.97399 22.1113 6.0791C22.1113 5.18417 21.3861 4.45817 20.4912 4.45801Z" fill="#D68240"/>
</svg>
